<svg width="243" height="188" viewBox="0 0 243 188" fill="none" xmlns="http://www.w3.org/2000/svg">
<g opacity="0.71">
<path opacity="0.4" d="M19.9094 81.1175C59.5294 17.9095 133.396 22.9811 188.279 54.7382C216.48 71.0562 222.441 119.333 197.119 139.837C186.346 148.56 173.957 152.292 160.676 142.771C116.504 111.103 -45.7853 185.924 19.9094 81.1175Z" fill="#E3E3E3"/>
<path d="M124.096 39.5C151.716 39.5 174.096 61.89 174.096 89.5C174.096 117.11 151.716 139.5 124.096 139.5M109.096 137C103.176 135.027 97.6354 132.062 92.7107 128.23M92.7107 50.77C97.6509 46.9623 103.187 43.9989 109.096 42M74.0957 80.73C75.2096 74.8667 77.4072 69.2626 80.5757 64.205M74.0957 98.27C75.2096 104.133 77.4072 109.737 80.5757 114.795" stroke="#2D496A" stroke-opacity="0.8" stroke-width="3.9633" stroke-linecap="round" stroke-linejoin="round"/>
<path d="M104.096 112C114.461 101.01 133.621 100.495 144.096 112M135.186 78.25C135.186 84.465 130.206 89.5 124.056 89.5C117.906 89.5 112.931 84.465 112.931 78.25C112.931 72.035 117.911 67 124.061 67C130.211 67 135.186 72.035 135.186 78.25Z" stroke="#2D496A" stroke-opacity="0.8" stroke-width="3.9633" stroke-linecap="round" stroke-linejoin="round"/>
<circle cx="170.598" cy="132" r="21.5" fill="#5B87B9" stroke="#2D496A" stroke-width="2.66284" stroke-linecap="round" stroke-linejoin="round"/>
<path d="M200.591 134.932L204.251 137.177L200.591 134.932ZM202.962 122.854L206.898 121.91L202.962 122.854ZM195.373 113.163L197.618 109.503L195.373 113.163Z" fill="#5B87B9"/>
<path d="M200.591 134.932L204.251 137.177M202.962 122.854L206.898 121.91M195.373 113.163L197.618 109.503" stroke="#2D496A" stroke-width="3.9633" stroke-linecap="round" stroke-linejoin="round"/>
<path d="M171.098 124.5V140.5M163.098 132.5H179.098" stroke="white" stroke-width="1.5" stroke-linecap="round" stroke-linejoin="round"/>
</g>
</svg>
