<svg width="22" height="22" viewBox="0 0 22 22" fill="none" xmlns="http://www.w3.org/2000/svg">
<path d="M13.7215 6.25C13.7215 6.25 14.2215 6.25 14.7215 7.25C14.7215 7.25 16.3105 4.75 17.7215 4.25M17.7465 13.792L17.7745 18.342C17.7499 18.9894 17.4753 19.6021 17.0083 20.0511C16.5413 20.5002 15.9184 20.7507 15.2705 20.75H4.14352C3.81482 20.7505 3.48923 20.6863 3.18535 20.561C2.88147 20.4357 2.60525 20.2518 2.37245 20.0197C2.13966 19.7877 1.95485 19.512 1.82858 19.2086C1.7023 18.9051 1.63704 18.5797 1.63652 18.251L1.72252 11.785M7.73252 4.763L3.89852 4.699C3.4658 4.68804 3.04116 4.81741 2.68806 5.06777C2.33496 5.31813 2.07236 5.67604 1.93952 6.088L0.842516 9.504C0.712516 9.908 0.703515 10.349 0.919515 10.715C1.70452 12.049 3.81452 13.869 7.16752 11.913M6.19652 10.083C6.58652 11.351 8.11652 13.576 11.2365 12.287" stroke="#D00416" stroke-width="1.5" stroke-linecap="round" stroke-linejoin="round"/>
<path d="M20.7506 5.766C20.7514 6.42417 20.6225 7.07606 20.3712 7.68439C20.12 8.29273 19.7513 8.84561 19.2864 9.31142C18.8214 9.77724 18.2692 10.1469 17.6613 10.3992C17.0534 10.6515 16.4018 10.7816 15.7436 10.782C15.0854 10.7816 14.4338 10.6515 13.8259 10.3992C13.218 10.1469 12.6658 9.77724 12.2008 9.31142C11.7358 8.84561 11.3672 8.29273 11.1159 7.68439C10.8647 7.07606 10.7358 6.42417 10.7366 5.766C10.7358 5.10782 10.8647 4.45594 11.1159 3.84761C11.3672 3.23927 11.7358 2.68639 12.2008 2.22058C12.6658 1.75476 13.218 1.38513 13.8259 1.1328C14.4338 0.88047 15.0854 0.750394 15.7436 0.75C16.4018 0.750394 17.0534 0.88047 17.6613 1.1328C18.2692 1.38513 18.8214 1.75476 19.2864 2.22058C19.7513 2.68639 20.12 3.23927 20.3712 3.84761C20.6225 4.45594 20.7514 5.10782 20.7506 5.766Z" stroke="#D00416" stroke-width="1.5" stroke-linecap="round" stroke-linejoin="round"/>
</svg>
