<svg width="16" height="16" viewBox="0 0 16 16" fill="none" xmlns="http://www.w3.org/2000/svg">
<path d="M7.69999 14.1185C11.2438 14.1185 14.1167 11.2456 14.1167 7.70182C14.1167 4.15799 11.2438 1.28516 7.69999 1.28516C4.15616 1.28516 1.28333 4.15799 1.28333 7.70182C1.28333 8.58662 1.4624 9.42957 1.78628 10.1964C1.96528 10.6202 2.05478 10.8321 2.06586 10.9923C2.07694 11.1524 2.0298 11.3286 1.93553 11.6809L1.28333 14.1185L3.72087 13.4663C4.07321 13.372 4.24939 13.3249 4.40954 13.336C4.56969 13.347 4.7816 13.4365 5.20542 13.6156C5.97227 13.9394 6.8152 14.1185 7.69999 14.1185Z" stroke="#3C5D80" stroke-width="0.9625" stroke-linejoin="round"/>
<path d="M5.51076 7.94262L6.06962 7.24853C6.30515 6.95599 6.5963 6.68367 6.61915 6.29415C6.62486 6.19577 6.55568 5.75407 6.41721 4.87068C6.36281 4.52351 6.03867 4.49219 5.75791 4.49219C5.39205 4.49219 5.20911 4.49219 5.02746 4.57516C4.79786 4.68004 4.56215 4.97492 4.51042 5.22197C4.46949 5.41745 4.49991 5.55214 4.56074 5.82152C4.8191 6.96568 5.4252 8.09566 6.36503 9.03551C7.30489 9.97536 8.43487 10.5815 9.57902 10.8398C9.8484 10.9006 9.98308 10.9311 10.1786 10.8901C10.4256 10.8384 10.7205 10.6027 10.8254 10.3731C10.9084 10.1914 10.9084 10.0085 10.9084 9.64265C10.9084 9.36186 10.8771 9.03775 10.5298 8.98334C9.64646 8.84487 9.2048 8.7757 9.10637 8.78141C8.71688 8.80425 8.44456 9.09538 8.15202 9.33093L7.45793 9.88976" stroke="#3C5D80" stroke-width="0.9625"/>
</svg>
