<svg width="24" height="24" viewBox="0 0 24 24" fill="none" xmlns="http://www.w3.org/2000/svg">
<path d="M12.0576 2C16.2112 2.03053 19.9149 4.61806 21.3672 8.50391C22.8196 12.3901 21.7186 16.768 18.5996 19.5078C15.4812 22.247 10.9933 22.7798 7.31836 20.8477L7.27246 20.832C7.2654 20.8279 7.2642 20.824 7.2627 20.8193L6.58008 20.4326C6.44107 20.3757 6.28643 20.3668 6.19238 20.3906C5.48293 20.6457 4.75773 20.855 4.02148 21.0176L3.88672 21.0342C3.07617 21.0522 2.66797 20.5262 2.66797 19.7607L2.6875 19.5967C2.87154 18.8356 3.10176 18.0863 3.36426 17.3926C3.40498 17.2612 3.39156 17.119 3.32129 16.9873L3.1377 16.6289C1.51295 13.5224 1.63576 9.79327 3.46094 6.7998C5.28585 3.80696 8.54623 1.98601 12.0576 2ZM11.7676 3.39844C8.85509 3.48177 6.17378 5.03117 4.65234 7.52637C3.08206 10.1018 2.9766 13.3098 4.37695 15.9873L4.55762 16.3398C4.79823 16.7901 4.84819 17.3179 4.68359 17.8447C4.47238 18.4057 4.29097 18.9774 4.1377 19.5566L4.5332 19.4541C4.80404 19.3795 5.07604 19.2964 5.35254 19.2051L5.77148 19.0615C6.21358 18.9398 6.68345 18.9684 7.14648 19.1592C7.24365 19.206 7.36466 19.2706 7.5166 19.3564L7.93945 19.5986C7.94645 19.6005 7.95231 19.6032 7.95703 19.6045L7.94531 19.6025L8.23242 19.7471C11.2579 21.2079 14.863 20.7779 17.459 18.6465L17.6787 18.459C20.3623 16.1015 21.31 12.3355 20.0605 8.99219C18.811 5.6486 15.6234 3.42191 12.0488 3.39453L11.7676 3.39844ZM7.61621 10.8594C8.24618 10.8595 8.75779 11.3699 8.75781 12C8.75781 12.6301 8.2462 13.1405 7.61621 13.1406C6.98611 13.1406 6.47461 12.6302 6.47461 12C6.47463 11.3698 6.98612 10.8594 7.61621 10.8594ZM12.0527 10.8594C12.6828 10.8594 13.1943 11.3698 13.1943 12C13.1943 12.6302 12.6828 13.1406 12.0527 13.1406C11.4227 13.1406 10.9111 12.6302 10.9111 12C10.9112 11.3699 11.4227 10.8594 12.0527 10.8594ZM16.4893 10.8594C17.1193 10.8594 17.6308 11.3698 17.6309 12C17.6309 12.6302 17.1194 13.1406 16.4893 13.1406C15.8594 13.1404 15.3486 12.6301 15.3486 12C15.3487 11.37 15.8594 10.8596 16.4893 10.8594Z" fill="#555555"/>
</svg>
